<?xml version="1.0" standalone="no"?>
<!DOCTYPE svg PUBLIC "-//W3C//DTD SVG 20010904//EN"
 "http://www.w3.org/TR/2001/REC-SVG-20010904/DTD/svg10.dtd">
<svg version="1.0" xmlns="http://www.w3.org/2000/svg"
 width="1280.000000pt" height="1280.000000pt" viewBox="0 0 1280.000000 1280.000000"
 preserveAspectRatio="xMidYMid meet">
<g transform="translate(0.000000,1280.000000) scale(0.100000,-0.100000)"
fill="#000000" stroke="none">
<path d="M8274 10372 c-7 -4 -38 -43 -71 -87 -33 -44 -133 -152 -222 -240
-177 -173 -221 -225 -221 -261 0 -24 10 -29 125 -54 28 -6 124 -31 215 -55
182 -49 347 -85 390 -85 53 0 54 15 15 177 -71 295 -154 553 -192 596 -18 19
-23 20 -39 9z"/>
<path d="M8393 10373 c-21 -8 -15 -38 42 -216 47 -146 102 -350 132 -491 13
-62 32 -66 98 -22 31 20 61 36 66 34 5 -2 -6 -28 -26 -58 -19 -30 -35 -64 -35
-75 0 -10 -11 -28 -25 -40 l-25 -20 50 -520 c28 -286 50 -538 50 -561 0 -82
39 -84 111 -6 169 185 408 528 573 824 48 87 42 101 -51 118 -84 14 -324 74
-378 94 -86 32 15 16 216 -34 111 -27 212 -50 224 -50 54 0 52 13 -33 313
-112 389 -141 471 -169 475 -16 2 -23 10 -23 25 0 12 -4 28 -8 35 -7 10 -747
184 -771 181 -3 0 -12 -3 -18 -6z"/>
<path d="M9308 10154 c-15 -14 -8 -42 71 -295 43 -140 94 -303 111 -364 41
-138 51 -147 97 -92 15 17 108 113 208 212 167 168 285 311 285 348 0 25 -20
33 -180 70 -85 20 -225 55 -310 77 -157 41 -269 59 -282 44z"/>
<path d="M10088 9878 c-9 -13 -99 -106 -200 -208 -186 -187 -298 -320 -298
-356 0 -11 5 -25 12 -32 14 -14 10 -15 -52 -16 -43 -1 -46 -3 -75 -54 -16 -29
-129 -218 -249 -420 -224 -375 -383 -679 -393 -749 -4 -32 -2 -41 12 -47 20
-7 7 -16 195 125 168 126 347 252 650 459 271 185 553 386 601 429 74 66 72
66 -374 175 -289 71 -347 91 -236 82 75 -6 176 -30 359 -86 128 -39 293 -72
316 -63 7 2 15 11 18 18 2 7 -31 130 -75 272 -44 142 -95 310 -113 373 -31
104 -36 115 -58 118 -17 2 -30 -4 -40 -20z"/>
<path d="M7768 9714 c-5 -4 -8 -19 -8 -32 0 -26 577 -1194 721 -1459 45 -84
89 -155 97 -158 9 -3 23 1 31 10 14 14 16 48 14 248 -1 128 -7 291 -13 362 -6
72 -13 285 -16 475 -4 190 -11 350 -16 357 -5 6 -41 19 -81 28 -40 9 -117 30
-172 46 -165 47 -451 118 -502 125 -27 3 -51 2 -55 -2z"/>
<path d="M4815 8740 c-607 -54 -1116 -243 -1565 -581 -472 -356 -862 -865
-1073 -1399 -90 -228 -158 -501 -194 -778 -21 -167 -24 -589 -5 -757 50 -431
150 -774 327 -1125 362 -713 1024 -1276 1793 -1524 623 -200 1318 -204 1900
-10 354 119 666 276 1048 530 241 160 304 223 304 307 0 33 -10 40 -160 113
-72 35 -130 65 -130 68 0 3 51 -12 113 -35 337 -120 582 -167 932 -176 301 -8
505 13 770 78 468 116 889 359 1230 711 387 398 614 854 707 1418 31 186 33
669 4 855 -68 442 -225 815 -493 1168 -143 189 -457 483 -661 621 l-52 35 -53
-16 c-82 -24 -157 -66 -264 -147 -123 -94 -203 -168 -203 -189 0 -10 49 -49
123 -98 575 -383 903 -833 998 -1365 26 -149 37 -492 20 -640 -74 -639 -412
-1181 -944 -1511 -481 -297 -1013 -398 -1542 -292 -494 99 -972 424 -1252 850
-296 452 -415 1114 -302 1678 56 278 200 580 387 812 34 43 62 86 62 97 0 33
-440 302 -474 289 -20 -8 -147 -189 -239 -341 -220 -365 -343 -713 -378 -1071
-15 -157 -6 -554 16 -695 93 -597 337 -1082 755 -1500 128 -128 237 -219 383
-317 53 -37 97 -70 97 -74 0 -3 -21 -17 -47 -31 -27 -14 -111 -62 -188 -108
-379 -225 -735 -380 -1007 -439 -278 -60 -747 -43 -1066 39 -431 110 -818 334
-1147 664 -368 369 -577 789 -661 1331 -22 139 -30 501 -15 651 47 460 216
886 494 1244 421 542 922 846 1557 945 161 26 569 31 744 11 283 -33 518 -102
771 -226 486 -238 877 -622 1105 -1085 138 -281 211 -554 240 -898 31 -371
-58 -834 -266 -1381 -43 -115 -61 -173 -55 -184 11 -20 287 -126 410 -158 52
-13 122 -24 158 -24 l64 0 79 163 c232 481 320 858 320 1367 0 587 -141 1120
-418 1587 -304 513 -755 942 -1265 1203 -327 168 -654 267 -1057 321 -167 23
-574 33 -735 19z m2096 -5071 c38 -23 69 -43 69 -45 0 -10 -146 61 -155 76
-12 20 18 9 86 -31z"/>
<path d="M7850 8664 c-251 -39 -546 -124 -783 -227 -152 -66 -177 -81 -177
-107 0 -11 33 -48 79 -90 118 -107 373 -309 399 -316 15 -4 49 5 100 29 183
83 388 125 657 136 l170 6 3 37 c3 29 -14 69 -85 210 -49 95 -105 210 -126
256 l-37 82 -53 -1 c-28 -1 -95 -7 -147 -15z"/>
</g>
</svg>
